<svg width="151" height="46" viewBox="0 0 151 46" fill="none" xmlns="http://www.w3.org/2000/svg">
<path d="M5.48625 10.08C5.48625 7.904 5.18758 6.304 4.59025 5.28C3.99292 4.21333 2.79825 3.68 1.00625 3.68H0.36625V1.76H8.04625C9.58225 1.76 10.7556 2.016 11.5663 2.528C12.3769 3.04 12.9529 3.89333 13.2943 5.088C13.6356 6.24 13.8063 7.904 13.8063 10.08V41.12H35.8863V44H5.48625V10.08ZM52.6328 44.64C49.5181 44.64 46.7874 43.9573 44.4408 42.592C42.1368 41.184 40.3661 39.3067 39.1288 36.96C37.8914 34.5707 37.2728 31.904 37.2728 28.96C37.2728 26.016 37.8914 23.3707 39.1288 21.024C40.3661 18.6347 42.1368 16.7573 44.4408 15.392C46.7874 13.984 49.5181 13.28 52.6328 13.28C55.7474 13.28 58.4568 13.984 60.7608 15.392C63.1074 16.7573 64.8994 18.6347 66.1368 21.024C67.3741 23.3707 67.9928 26.016 67.9928 28.96C67.9928 31.904 67.3741 34.5707 66.1368 36.96C64.8994 39.3067 63.1074 41.184 60.7608 42.592C58.4568 43.9573 55.7474 44.64 52.6328 44.64ZM52.6328 41.76C54.8088 41.76 56.4728 40.5867 57.6248 38.24C58.7768 35.8933 59.3528 32.8 59.3528 28.96C59.3528 25.12 58.7768 22.0267 57.6248 19.68C56.4728 17.3333 54.8088 16.16 52.6328 16.16C50.4568 16.16 48.7928 17.3333 47.6408 19.68C46.4888 22.0267 45.9128 25.12 45.9128 28.96C45.9128 32.8 46.4888 35.8933 47.6408 38.24C48.7928 40.5867 50.4568 41.76 52.6328 41.76ZM95.5613 45.28C91.2093 45.28 87.2626 44.2773 83.7213 42.272C80.2226 40.224 77.4706 37.4507 75.4653 33.952C73.5026 30.4107 72.5213 26.5067 72.5213 22.24C72.5213 18.144 73.3959 14.4533 75.1453 11.168C76.8946 7.84 79.3693 5.23733 82.5693 3.36C85.8119 1.44 89.5026 0.48 93.6413 0.48C97.3959 0.48 100.596 0.970666 103.241 1.952C105.887 2.93333 107.849 4.17067 109.129 5.664C109.855 6.60266 110.303 7.79733 110.473 9.248C110.687 10.6987 110.793 12.4693 110.793 14.56H108.873C108.063 10.6773 106.569 7.84 104.393 6.048C102.26 4.256 99.3159 3.36 95.5613 3.36C90.7826 3.36 87.2413 5.152 84.9373 8.736C82.6333 12.32 81.4813 16.8213 81.4813 22.24C81.4813 29.536 82.7399 34.784 85.2573 37.984C87.8173 41.1413 91.2519 42.72 95.5613 42.72C98.8893 42.72 101.769 42.1653 104.201 41.056V29.664C104.201 27.4027 105.055 25.5467 106.761 24.096C108.468 22.6027 111.753 21.856 116.617 21.856V23.456C113.887 23.456 112.521 25.4827 112.521 29.536V40.992C110.089 42.4853 107.487 43.5733 104.713 44.256C101.94 44.9387 98.8893 45.28 95.5613 45.28ZM134.945 44.64C131.831 44.64 129.1 43.9573 126.753 42.592C124.449 41.184 122.679 39.3067 121.441 36.96C120.204 34.5707 119.585 31.904 119.585 28.96C119.585 26.016 120.204 23.3707 121.441 21.024C122.679 18.6347 124.449 16.7573 126.753 15.392C129.1 13.984 131.831 13.28 134.945 13.28C138.06 13.28 140.769 13.984 143.073 15.392C145.42 16.7573 147.212 18.6347 148.449 21.024C149.687 23.3707 150.305 26.016 150.305 28.96C150.305 31.904 149.687 34.5707 148.449 36.96C147.212 39.3067 145.42 41.184 143.073 42.592C140.769 43.9573 138.06 44.64 134.945 44.64ZM134.945 41.76C137.121 41.76 138.785 40.5867 139.937 38.24C141.089 35.8933 141.665 32.8 141.665 28.96C141.665 25.12 141.089 22.0267 139.937 19.68C138.785 17.3333 137.121 16.16 134.945 16.16C132.769 16.16 131.105 17.3333 129.953 19.68C128.801 22.0267 128.225 25.12 128.225 28.96C128.225 32.8 128.801 35.8933 129.953 38.24C131.105 40.5867 132.769 41.76 134.945 41.76Z" fill="black"/>
</svg>
